<?xml version="1.0" encoding="iso-8859-1"?>
<!-- Uploaded to: SVG Repo, www.svgrepo.com, Generator: SVG Repo Mixer Tools -->
<svg height="800px" width="800px" version="1.1" id="Layer_1" xmlns="http://www.w3.org/2000/svg" xmlns:xlink="http://www.w3.org/1999/xlink" 
	 viewBox="0 0 511.999 511.999" xml:space="preserve">
<g>
	<path style="fill:#6E6E72;" d="M451.442,384.302l-23.602-23.601c-0.186-0.185-0.401-0.323-0.626-0.438l-3.27-3.27
		c-0.544-0.543-1.308-0.802-2.068-0.71c-0.762,0.095-1.436,0.537-1.828,1.197c-7.592,12.77-16.808,24.608-27.387,35.188
		c-10.585,10.585-22.426,19.801-35.19,27.388c-0.661,0.393-1.102,1.068-1.197,1.829c-0.095,0.761,0.166,1.525,0.709,2.067
		l23.603,23.601c0.191,0.19,0.409,0.333,0.637,0.449l3.259,3.259c0.486,0.486,1.122,0.729,1.759,0.729
		c0.635,0,1.273-0.243,1.758-0.729l63.444-63.444c0.466-0.466,0.729-1.098,0.729-1.757
		C452.171,385.4,451.908,384.769,451.442,384.302z"/>
	<path style="fill:#6E6E72;" d="M154.986,86.557l-2.95-2.95l0,0l-24.124-24.123c-0.991-0.994-2.603-0.994-3.594,0l-64.841,64.842
		c-0.991,0.993-0.991,2.603,0,3.595l2.95,2.95l0,0l24.123,24.122c0.479,0.48,1.128,0.745,1.797,0.745c0.105,0,0.21-0.007,0.315-0.02
		c0.779-0.097,1.47-0.55,1.869-1.225c7.753-13.041,17.169-25.142,27.989-35.963c10.814-10.814,22.916-20.231,35.967-27.993
		c0.674-0.399,1.126-1.09,1.223-1.868C155.808,87.891,155.54,87.111,154.986,86.557z"/>
</g>
<path style="fill:#7E7E82;" d="M55.216,276.718c4.565,44.567,23.918,87.906,58.067,122.055
	c39.417,39.415,91.078,59.122,142.74,59.122s103.325-19.708,142.74-59.122c60.357-60.358,74.503-149.428,42.439-223.242
	c-9.814-22.597-23.959-43.764-42.437-62.24c-1.524-1.524-3.069-3.011-4.63-4.476c-0.488-0.46-0.988-0.906-1.481-1.36
	c-1.084-0.998-2.172-1.988-3.272-2.958c-0.583-0.515-1.174-1.02-1.762-1.527c-1.04-0.896-2.086-1.78-3.14-2.652
	c-0.603-0.498-1.208-0.996-1.816-1.486c-1.095-0.886-2.202-1.755-3.313-2.613c-0.558-0.433-1.113-0.87-1.675-1.295
	c-1.36-1.031-2.732-2.036-4.113-3.028c-0.313-0.225-0.623-0.459-0.938-0.683c-1.712-1.214-3.438-2.397-5.181-3.552
	c-0.406-0.27-0.819-0.527-1.227-0.793c-1.331-0.868-2.665-1.725-4.011-2.558c-0.601-0.373-1.206-0.734-1.809-1.099
	c-1.177-0.713-2.36-1.414-3.549-2.101c-0.648-0.375-1.299-0.745-1.95-1.111c-1.186-0.667-2.377-1.317-3.572-1.959
	c-0.629-0.339-1.26-0.678-1.893-1.009c-1.329-0.695-2.667-1.367-4.009-2.031c-0.492-0.243-0.982-0.495-1.476-0.735
	c-1.85-0.895-3.711-1.765-5.583-2.6c-0.177-0.08-0.356-0.152-0.536-0.231c-1.68-0.744-3.367-1.463-5.064-2.159
	c-0.596-0.247-1.2-0.479-1.798-0.717c-1.292-0.516-2.585-1.022-3.884-1.509c-0.689-0.258-1.381-0.51-2.073-0.761
	c-1.236-0.449-2.477-0.885-3.721-1.31c-0.7-0.239-1.399-0.477-2.1-0.707c-1.301-0.427-2.606-0.835-3.912-1.236
	c-0.631-0.193-1.258-0.392-1.889-0.578c-1.68-0.496-3.361-0.967-5.049-1.418c-0.227-0.061-0.451-0.132-0.678-0.191l-0.025-0.004
	c-10.823-2.852-21.837-4.784-32.92-5.808l-0.08-0.014c-0.721-0.066-1.446-0.112-2.168-0.169c-0.97-0.08-1.941-0.164-2.914-0.229
	c-0.852-0.058-1.707-0.095-2.561-0.143c-0.948-0.051-1.898-0.108-2.848-0.147c-0.88-0.034-1.759-0.051-2.639-0.074
	c-0.925-0.024-1.848-0.058-2.773-0.07c-0.903-0.011-1.807-0.004-2.71-0.004s-1.807-0.007-2.708,0.004
	c-0.925,0.013-1.85,0.045-2.775,0.07c-0.88,0.023-1.759,0.04-2.639,0.074c-0.948,0.039-1.9,0.096-2.848,0.147
	c-0.853,0.048-1.707,0.085-2.561,0.143c-0.973,0.065-1.941,0.149-2.914,0.229c-0.721,0.059-1.444,0.104-2.166,0.169l-0.082,0.014
	c-11.081,1.025-22.095,2.957-32.918,5.808l-0.025,0.004c-0.229,0.06-0.454,0.131-0.681,0.191c-1.685,0.45-3.369,0.922-5.047,1.418
	c-0.631,0.186-1.26,0.386-1.889,0.578c-1.308,0.401-2.613,0.809-3.914,1.236c-0.7,0.23-1.401,0.468-2.1,0.707
	c-1.243,0.425-2.483,0.86-3.721,1.31c-0.692,0.251-1.381,0.502-2.07,0.761c-1.301,0.487-2.594,0.994-3.884,1.509
	c-0.601,0.239-1.202,0.471-1.8,0.717c-1.696,0.696-3.385,1.415-5.064,2.159c-0.177,0.08-0.356,0.152-0.536,0.231
	c-1.871,0.835-3.73,1.705-5.583,2.6c-0.492,0.24-0.984,0.491-1.476,0.735c-1.342,0.664-2.68,1.336-4.009,2.031
	c-0.633,0.331-1.263,0.671-1.893,1.009c-1.195,0.641-2.386,1.291-3.571,1.959c-0.653,0.366-1.304,0.736-1.952,1.111
	c-1.188,0.686-2.371,1.389-3.547,2.101c-0.605,0.365-1.211,0.726-1.811,1.099c-1.344,0.833-2.68,1.69-4.009,2.558
	c-0.408,0.267-0.821,0.523-1.229,0.793c-1.74,1.155-3.469,2.338-5.181,3.552c-0.313,0.224-0.623,0.458-0.936,0.683
	c-1.381,0.991-2.754,1.997-4.115,3.028c-0.562,0.425-1.118,0.862-1.675,1.295c-1.111,0.858-2.215,1.727-3.313,2.613
	c-0.607,0.49-1.211,0.988-1.814,1.486c-1.055,0.872-2.1,1.757-3.143,2.652c-0.588,0.507-1.176,1.012-1.759,1.527
	c-1.1,0.969-2.19,1.96-3.272,2.958c-0.495,0.454-0.991,0.9-1.483,1.36c-1.558,1.465-3.106,2.952-4.63,4.476
	c-8.621,8.622-16.3,17.83-23.036,27.497c-1.923,2.762-3.771,5.56-5.542,8.394c-5.313,8.501-9.931,17.31-13.857,26.349
	C60.5,199.346,54.965,224.75,54.241,250.264"/>
<path style="fill:#A4A4A5;" d="M138.802,138.808c-64.743,64.743-64.743,169.703,0,234.444
	c64.736,64.739,169.701,64.743,234.441-0.001c64.74-64.739,64.74-169.704,0-234.443C308.504,74.069,203.54,74.069,138.802,138.808z"
	/>
<path style="opacity:0.15;fill:#202020;enable-background:new    ;" d="M165.931,373.253c-64.74-64.74-64.74-169.701,0.002-234.444
	c28.916-28.917,65.858-44.906,103.655-47.992c-46.824-3.821-94.962,12.168-130.784,47.992c-64.743,64.743-64.743,169.703,0,234.444
	c35.82,35.823,83.959,51.812,130.784,47.992C231.79,418.159,194.847,402.168,165.931,373.253z"/>
<path style="fill:#4A4A4C;" d="M379.113,132.94c-32.88-32.878-76.594-50.985-123.09-50.985s-90.21,18.107-123.087,50.985
	c-32.879,32.88-50.988,76.595-50.988,123.092c0,46.474,18.092,90.169,50.941,123.042c0.018,0.017,0.03,0.034,0.046,0.051
	c0.017,0.017,0.035,0.031,0.053,0.048c32.871,32.846,76.563,50.934,123.036,50.935c0.003,0-0.001,0,0.002,0
	c46.493,0,90.212-18.11,123.088-50.987c32.878-32.879,50.985-76.593,50.985-123.09C430.098,209.533,411.991,165.818,379.113,132.94z
	 M397.049,326.273l-99.764-99.764l17.494-17.494l91.436,91.43c0.242,0.243,0.5,0.463,0.765,0.667
	C404.403,309.778,401.084,318.193,397.049,326.273z M373.363,361.051l-105.31-105.311l17.495-17.495l102.973,102.973
	C384.034,348.166,378.974,354.796,373.363,361.051z M341.914,388.071L238.819,284.975l17.498-17.498l105.346,105.346
	C355.44,378.466,348.833,383.549,341.914,388.071z M302.085,406.699l-92.495-92.495l17.491-17.491l99.958,99.958
	C319.027,400.728,310.683,404.082,302.085,406.699z M138.958,361.363c-18.796-20.839-31.46-45.89-37.087-72.938l55.013,55.012
	L138.958,361.363z M168.622,355.174l55.01,55.009c-27.048-5.627-52.097-18.288-72.936-37.083L168.622,355.174z M99.009,262.088
	c-0.113-0.113-0.233-0.211-0.35-0.316c-0.069-1.908-0.115-3.82-0.115-5.739c0-9.174,0.78-18.231,2.308-27.09l85.262,85.262
	l-17.494,17.495L99.009,262.088z M105.356,209.971c2.616-8.599,5.971-16.945,10.028-24.957l99.961,99.961l-17.493,17.491
	L105.356,209.971z M170.835,123.533L273.81,226.508l-17.495,17.496L151.003,138.692
	C157.255,133.078,163.887,128.019,170.835,123.533z M210.859,105.099l92.182,92.178l-17.494,17.496l-99.766-99.768
	C193.835,110.982,202.22,107.671,210.859,105.099z M326.516,197.275l17.498-17.497l68.118,68.118
	c0.375,0.376,0.781,0.703,1.205,0.991c0.105,2.371,0.164,4.752,0.164,7.141c0,8.828-0.73,17.542-2.145,26.081L326.516,197.275z
	 M355.749,168.041l17.342-17.341c18.451,20.456,30.994,44.972,36.77,71.451L355.749,168.041z M344.013,156.305l-54.112-54.112
	c26.481,5.776,50.995,18.32,71.453,36.77L344.013,156.305z M263.184,98.718c0.3,0.451,0.647,0.88,1.045,1.277l68.047,68.046
	l-17.498,17.498L229.933,100.7c8.542-1.415,17.259-2.147,26.088-2.147C258.419,98.554,260.805,98.612,263.184,98.718z
	 M139.23,150.392l105.348,105.348l-17.498,17.498L123.984,170.139C128.505,163.221,133.589,156.614,139.23,150.392z
	 M256.022,413.509c-2.064,0-4.122-0.052-6.174-0.129c-0.365-0.655-0.818-1.273-1.374-1.828l-68.115-68.115l17.494-17.495
	l85.262,85.259C274.253,412.728,265.198,413.509,256.022,413.509z"/>
<g>
	<path style="fill:#DCE0E2;" d="M124.294,8.408C118.873,2.986,111.666,0,104,0S89.129,2.986,83.708,8.407l-75.31,75.31
		C-2.79,94.904-2.79,113.112,8.4,124.302l6.747,6.747c5.421,5.421,12.628,8.409,20.294,8.409c7.665,0,14.871-2.985,20.291-8.405
		l2.375-2.375c0.519-0.519,0.81-1.223,0.81-1.958s-0.292-1.437-0.81-1.956l-16.789-16.788l66.65-66.651l16.789,16.789
		c1.038,1.038,2.875,1.038,3.912,0l2.374-2.375c5.42-5.42,8.405-12.626,8.405-20.291c0.001-7.665-2.984-14.872-8.405-20.294
		L124.294,8.408z"/>
	<path style="fill:#DCE0E2;" d="M503.583,387.698l-6.746-6.748c-5.42-5.42-12.626-8.407-20.292-8.407s-14.871,2.984-20.293,8.404
		l-2.374,2.375c-1.081,1.081-1.081,2.832,0,3.912l16.787,16.789l-66.648,66.65l-16.789-16.788c-1.038-1.038-2.877-1.038-3.913,0
		l-2.372,2.374c-5.422,5.42-8.41,12.627-8.409,20.292c0.001,7.664,2.988,14.87,8.409,20.291l6.748,6.748
		c5.42,5.421,12.627,8.408,20.293,8.409c0,0,0.001,0,0.003,0c7.662,0,14.868-2.986,20.288-8.407l75.311-75.313
		c5.42-5.419,8.405-12.626,8.405-20.291C511.99,400.325,509.005,393.119,503.583,387.698z"/>
</g>
<g>
	<path style="fill:#E95353;" d="M344.79,336.564c24.913-24.711,36.983-57.667,31.503-86.01
		c-2.338-12.094-14.04-20.001-26.131-17.663c-12.092,2.34-20,14.039-17.662,26.13c2.174,11.239-2.896,29.782-19.121,45.876
		c-16.223,16.093-34.806,21.013-46.027,18.747c-12.073-2.434-23.834,5.377-26.272,17.452c-2.436,12.073,5.375,23.835,17.45,26.273
		C286.825,373.078,319.879,361.275,344.79,336.564z"/>
	<path style="fill:#E95353;" d="M286.945,280.236c24.913-24.711,36.981-57.667,31.5-86.01
		c-2.338-12.094-14.037-20.001-26.129-17.663c-12.095,2.34-20,14.039-17.662,26.13c2.174,11.239-2.898,29.782-19.122,45.876
		c-16.222,16.093-34.807,21.012-46.026,18.747c-12.073-2.434-23.834,5.377-26.272,17.452c-2.438,12.073,5.375,23.835,17.45,26.273
		C228.981,316.751,262.033,304.948,286.945,280.236z"/>
	<path style="fill:#E95353;" d="M229.102,223.909c24.913-24.711,36.981-57.667,31.5-86.01
		c-2.338-12.094-14.038-20.001-26.129-17.663c-12.095,2.34-20,14.039-17.662,26.13c2.174,11.239-2.898,29.782-19.122,45.876
		c-16.222,16.093-34.807,21.012-46.026,18.747c-12.073-2.434-23.834,5.377-26.272,17.45c-2.438,12.073,5.375,23.835,17.45,26.273
		C171.137,260.423,204.189,248.621,229.102,223.909z"/>
</g>
<g>
	<path style="fill:#F96969;" d="M191.846,198.136l10.776,10.683c1.618,1.605,3.73,2.406,5.842,2.406
		c2.136,0,4.271-0.819,5.894-2.457c3.227-3.254,3.205-8.509-0.05-11.736l-10.776-10.683c-0.087-0.086-0.181-0.16-0.27-0.242
		c-1.688,2.07-3.544,4.123-5.574,6.136c-2.029,2.013-4.096,3.851-6.181,5.523C191.619,197.89,191.726,198.017,191.846,198.136z"/>
	<path style="fill:#F96969;" d="M249.346,254.097c0.208,0.231,0.426,0.456,0.664,0.668l11.582,10.323
		c1.582,1.41,3.555,2.104,5.52,2.104c2.284,0,4.558-0.938,6.199-2.777c3.05-3.421,2.748-8.668-0.674-11.717l-11.524-10.271
		c-1.69,2.073-3.548,4.127-5.58,6.144C253.5,250.585,251.432,252.424,249.346,254.097z"/>
	<path style="fill:#F96969;" d="M307.702,310.953l9.931,9.304c1.6,1.5,3.638,2.243,5.672,2.243c2.214,0,4.424-0.881,6.057-2.625
		c3.135-3.344,2.963-8.597-0.381-11.731l-9.931-9.304c-0.031-0.03-0.066-0.054-0.098-0.083c-1.689,2.071-3.544,4.124-5.576,6.139
		c-2.031,2.014-4.099,3.853-6.185,5.526C307.355,310.605,307.522,310.783,307.702,310.953z"/>
	<path style="fill:#F96969;" d="M350.084,289.883c1.159-4.434-1.496-8.969-5.93-10.127l-13.051-3.411
		c-1.419,4.822-3.682,9.948-6.903,15.095c0.577,0.312,1.192,0.569,1.855,0.741l13.902,3.634c0.704,0.185,1.41,0.272,2.104,0.272
		C345.743,296.086,349.109,293.615,350.084,289.883z"/>
	<path style="fill:#F96969;" d="M284.825,323.058l4.748,10.26c1.403,3.032,4.402,4.817,7.537,4.817c1.167,0,2.351-0.248,3.48-0.769
		c4.16-1.924,5.971-6.857,4.047-11.017l-4.748-10.26c-0.063-0.134-0.136-0.258-0.204-0.387c-5.163,3.156-10.297,5.357-15.118,6.721
		C284.647,322.635,284.728,322.849,284.825,323.058z"/>
	<path style="fill:#F96969;" d="M265.015,238.065l24.397,6.378c0.704,0.185,1.41,0.272,2.104,0.272c3.685,0,7.05-2.471,8.025-6.202
		c1.159-4.434-1.496-8.969-5.93-10.127l-21.264-5.558c-1.728,4.876-4.3,9.993-7.833,15.081
		C264.68,237.961,264.845,238.02,265.015,238.065z"/>
	<path style="fill:#F96969;" d="M237.124,280.577c1.403,3.032,4.403,4.817,7.538,4.817c1.166,0,2.353-0.248,3.48-0.769
		c4.158-1.924,5.971-6.857,4.046-11.017l-7.449-16.1c-4.995,3.399-10.008,5.882-14.789,7.564L237.124,280.577z"/>
	<path style="fill:#F96969;" d="M231.355,181.922c0.704,0.185,1.41,0.272,2.104,0.272c3.685,0,7.05-2.471,8.025-6.202
		c1.159-4.434-1.496-8.969-5.93-10.127l-19.378-5.066c-1.13,4.893-3.154,10.177-6.201,15.535L231.355,181.922z"/>
	<path style="fill:#F96969;" d="M175.284,226.603c1.403,3.032,4.403,4.817,7.539,4.817c1.165,0,2.351-0.248,3.48-0.769
		c4.161-1.924,5.971-6.857,4.046-11.017l-7.389-15.968c-5.255,3.085-10.457,5.189-15.311,6.434L175.284,226.603z"/>
</g>
</svg>